<svg width="280" height="145" viewBox="0 0 280 145" fill="none" xmlns="http://www.w3.org/2000/svg">
<rect width="432" height="48" transform="translate(-47.3711 98.7065) rotate(-13.208)" fill="#2189FF"/>
<path d="M-14.2026 120.71L-15.9066 113.449L-18.7046 114.106L-18.9747 112.955L-12.1579 111.355L-11.8878 112.506L-14.6858 113.163L-12.9817 120.423L-14.2026 120.71ZM-7.34539 119.286C-7.97235 119.433 -8.55537 119.426 -9.09444 119.265C-9.63052 119.099 -10.0885 118.802 -10.4685 118.373C-10.8455 117.94 -11.1103 117.398 -11.2629 116.748C-11.4247 116.058 -11.4365 115.43 -11.2983 114.864C-11.1562 114.296 -10.8859 113.82 -10.4874 113.435C-10.0888 113.049 -9.58194 112.785 -8.96665 112.64C-8.32411 112.489 -7.74179 112.511 -7.21969 112.705C-6.69851 112.895 -6.2625 113.238 -5.91166 113.735C-5.55693 114.231 -5.31428 114.862 -5.1837 115.629L-6.40453 115.915L-6.50872 115.471C-6.68833 114.741 -6.95556 114.233 -7.31041 113.946C-7.66136 113.659 -8.11333 113.58 -8.6663 113.71C-9.27769 113.853 -9.69197 114.154 -9.90913 114.612C-10.1263 115.069 -10.1494 115.662 -9.9785 116.391C-9.81582 117.084 -9.53587 117.585 -9.13867 117.894C-8.74237 118.2 -8.25411 118.285 -7.67387 118.149C-7.29224 118.059 -6.98329 117.896 -6.74702 117.66C-6.50776 117.419 -6.34818 117.118 -6.26827 116.759L-4.9817 116.857C-5.09451 117.479 -5.36359 118.005 -5.78893 118.433C-6.21518 118.858 -6.734 119.142 -7.34539 119.286ZM-10.2948 116.828L-10.5183 115.876L-6.01466 114.819L-5.7912 115.771L-10.2948 116.828ZM-3.79787 118.268L-3.84311 118.075L-1.4414 112.211L-4.69499 112.975L-4.95136 111.883L0.241544 110.664L0.288155 110.863L-2.10909 116.719L1.29054 115.921L1.5469 117.014L-3.79787 118.268ZM8.12351 115.655C7.49265 115.803 6.91216 115.789 6.38203 115.614C5.85191 115.438 5.40179 115.131 5.03168 114.692C4.66455 114.248 4.40422 113.699 4.25068 113.045C4.09622 112.387 4.08901 111.778 4.22904 111.22C4.36815 110.657 4.63697 110.183 5.03549 109.798C5.43309 109.409 5.94148 109.141 6.56066 108.996C7.19152 108.848 7.77201 108.862 8.30214 109.037C8.83226 109.213 9.28238 109.52 9.65249 109.959C10.0226 110.398 10.284 110.943 10.4366 111.593C10.5911 112.251 10.5987 112.862 10.4596 113.424C10.3235 113.982 10.0571 114.458 9.66036 114.851C9.26276 115.24 8.75048 115.508 8.12351 115.655ZM7.85344 114.504C8.45704 114.363 8.85929 114.055 9.0602 113.58C9.26409 113.101 9.29063 112.54 9.13983 111.897C8.98537 111.239 8.71012 110.749 8.31406 110.427C7.92098 110.1 7.42654 110.007 6.83073 110.147C6.42184 110.243 6.10693 110.415 5.88599 110.664C5.66414 110.909 5.52735 111.211 5.47561 111.568C5.42296 111.921 5.44691 112.312 5.54744 112.741C5.70281 113.403 5.97898 113.897 6.37595 114.222C6.77292 114.548 7.26542 114.642 7.85344 114.504ZM12.4619 114.452L10.9813 108.143L12.0678 107.888L12.4269 109.419L12.2285 109.256C12.2588 109.035 12.3167 108.826 12.402 108.63C12.4864 108.429 12.5976 108.255 12.7355 108.108C12.8678 107.953 13.0239 107.822 13.204 107.714C13.3871 107.601 13.5804 107.515 13.7841 107.455C13.9868 107.391 14.1877 107.354 14.3868 107.344L14.6555 108.489C14.4363 108.483 14.2029 108.521 13.9552 108.604C13.7115 108.686 13.5005 108.82 13.3222 109.005C13.1537 109.18 13.0326 109.373 12.9587 109.584C12.8887 109.793 12.8549 110.017 12.8573 110.255C12.8588 110.488 12.8887 110.73 12.9472 110.979L13.6944 114.163L12.4619 114.452ZM18.6199 113.192C18.1526 113.301 17.7412 113.307 17.3855 113.21C17.029 113.109 16.7355 112.935 16.5053 112.689C16.278 112.439 16.1241 112.142 16.0437 111.799C15.9687 111.48 15.9594 111.186 16.0157 110.919C16.0719 110.651 16.1914 110.407 16.3741 110.187C16.5558 109.964 16.796 109.762 17.0945 109.581C17.3557 109.433 17.6562 109.286 17.9959 109.141C18.3357 108.996 18.6939 108.85 19.0705 108.704C19.451 108.557 19.8276 108.411 20.2003 108.266L19.814 108.616C19.7057 108.119 19.5147 107.778 19.2408 107.592C18.97 107.4 18.5717 107.367 18.046 107.49C17.715 107.568 17.4295 107.717 17.1896 107.937C16.9487 108.154 16.8154 108.453 16.7895 108.833L15.5682 108.749C15.5969 108.172 15.7919 107.672 16.1531 107.25C16.5182 106.827 17.0649 106.531 17.7931 106.36C18.3577 106.227 18.8713 106.209 19.3336 106.306C19.799 106.398 20.1779 106.63 20.4704 107.001C20.6201 107.184 20.7336 107.387 20.8109 107.611C20.8882 107.836 20.9579 108.08 21.02 108.345L21.9317 112.229L20.8511 112.483L20.5124 111.04L20.7666 111.178C20.619 111.722 20.3706 112.16 20.0214 112.493C19.6751 112.821 19.208 113.054 18.6199 113.192ZM18.6016 112.142C18.9482 112.061 19.232 111.93 19.4528 111.751C19.6728 111.568 19.8364 111.363 19.9435 111.137C20.0505 110.91 20.1032 110.688 20.1015 110.471C20.1239 110.269 20.1115 110.05 20.0644 109.814C20.0213 109.578 19.9833 109.39 19.9504 109.249L20.3818 109.302C20.01 109.451 19.6719 109.586 19.3674 109.707C19.063 109.827 18.7877 109.941 18.5417 110.048C18.2986 110.151 18.0851 110.256 17.9011 110.365C17.7473 110.463 17.6139 110.568 17.5007 110.681C17.3913 110.793 17.3115 110.916 17.261 111.051C17.2144 111.186 17.2108 111.336 17.2501 111.504C17.2885 111.667 17.365 111.81 17.4797 111.931C17.5935 112.048 17.7437 112.128 17.9303 112.17C18.1169 112.213 18.3407 112.203 18.6016 112.142ZM25.9956 111.461C25.4075 111.599 24.8651 111.572 24.3682 111.38C23.8751 111.188 23.4529 110.868 23.1013 110.42C22.7527 109.968 22.5044 109.426 22.3564 108.796C22.2074 108.161 22.1912 107.567 22.3079 107.014C22.4237 106.456 22.6619 105.983 23.0226 105.595C23.3863 105.201 23.8641 104.935 24.4561 104.796C25.0519 104.656 25.5866 104.685 26.0601 104.882C26.5366 105.074 26.937 105.397 27.2613 105.851C27.5895 106.304 27.8276 106.846 27.9757 107.477C28.1237 108.108 28.1516 108.699 28.0592 109.251C27.9668 109.802 27.7509 110.274 27.4115 110.666C27.0711 111.054 26.5992 111.319 25.9956 111.461ZM25.9058 110.317C26.3069 110.223 26.6117 110.05 26.82 109.8C27.0283 109.55 27.1516 109.244 27.1899 108.881C27.2281 108.519 27.196 108.12 27.0936 107.684C26.9913 107.248 26.8404 106.876 26.6411 106.57C26.4457 106.262 26.2014 106.044 25.9083 105.916C25.6191 105.786 25.2837 105.767 24.9021 105.856C24.4971 105.951 24.1874 106.129 23.9731 106.388C23.7588 106.648 23.6267 106.961 23.5768 107.326C23.5308 107.69 23.5563 108.078 23.6531 108.491C23.7509 108.908 23.9019 109.271 24.106 109.581C24.3131 109.885 24.5665 110.107 24.8663 110.246C25.1699 110.385 25.5164 110.408 25.9058 110.317ZM27.8353 110.844L26.7701 106.305L26.6299 106.338L25.721 102.465L26.9477 102.177L28.9218 110.589L27.8353 110.844ZM32.3789 109.962C31.9116 110.072 31.5001 110.078 31.1445 109.981C30.7879 109.88 30.4945 109.706 30.2642 109.46C30.0369 109.21 29.8831 108.913 29.8026 108.57C29.7277 108.251 29.7184 107.957 29.7746 107.689C29.8309 107.421 29.9504 107.178 30.133 106.958C30.3148 106.735 30.5549 106.532 30.8535 106.351C31.1147 106.204 31.4151 106.057 31.7549 105.912C32.0946 105.766 32.4528 105.621 32.8294 105.475C33.21 105.328 33.5866 105.182 33.9593 105.037L33.5729 105.387C33.4647 104.89 33.2736 104.549 32.9998 104.362C32.7289 104.171 32.3307 104.137 31.8049 104.261C31.4739 104.338 31.1885 104.488 30.9485 104.708C30.7077 104.925 30.5743 105.223 30.5485 105.603L29.3272 105.52C29.3559 104.942 29.5509 104.443 29.9121 104.021C30.2772 103.598 30.8238 103.302 31.552 103.131C32.1167 102.998 32.6302 102.98 33.0926 103.077C33.5579 103.169 33.9369 103.401 34.2294 103.772C34.3791 103.954 34.4925 104.158 34.5698 104.382C34.6471 104.606 34.7168 104.851 34.779 105.116L35.6907 109L34.61 109.254L34.2714 107.811L34.5256 107.949C34.378 108.493 34.1296 108.931 33.7803 109.264C33.4341 109.592 32.9669 109.824 32.3789 109.962ZM32.3606 108.913C32.7072 108.832 32.9909 108.701 33.2118 108.522C33.4318 108.339 33.5953 108.134 33.7024 107.908C33.8095 107.681 33.8622 107.459 33.8605 107.242C33.8828 107.039 33.8705 106.821 33.8234 106.585C33.7803 106.349 33.7422 106.16 33.7093 106.02L34.1408 106.073C33.769 106.222 33.4308 106.357 33.1264 106.477C32.8219 106.598 32.5467 106.712 32.3006 106.819C32.0576 106.921 31.844 107.027 31.66 107.136C31.5063 107.234 31.3728 107.339 31.2596 107.452C31.1503 107.564 31.0704 107.687 31.02 107.822C30.9734 107.957 30.9697 108.107 31.009 108.275C31.0474 108.438 31.124 108.581 31.2386 108.702C31.3524 108.819 31.5026 108.899 31.6893 108.941C31.8759 108.983 32.0997 108.974 32.3606 108.913ZM41.0571 110.699L41.4979 107.089L41.7457 108.066L37.4056 101.942L38.679 101.643L41.9621 106.388L41.5883 106.476L42.324 100.787L43.5623 100.497L42.2196 110.426L41.0571 110.699ZM47.5525 106.401C47.0852 106.511 46.6738 106.517 46.3181 106.42C45.9616 106.319 45.6681 106.145 45.4379 105.899C45.2106 105.648 45.0567 105.352 44.9763 105.009C44.9013 104.69 44.892 104.396 44.9483 104.128C45.0045 103.86 45.124 103.616 45.3067 103.397C45.4884 103.173 45.7286 102.971 46.0271 102.79C46.2883 102.643 46.5888 102.496 46.9285 102.351C47.2683 102.205 47.6265 102.059 48.0031 101.914C48.3836 101.767 48.7602 101.621 49.1329 101.476L48.7466 101.825C48.6383 101.329 48.4473 100.988 48.1734 100.801C47.9026 100.61 47.5043 100.576 46.9786 100.7C46.6476 100.777 46.3621 100.926 46.1222 101.147C45.8813 101.364 45.748 101.662 45.7221 102.042L44.5008 101.959C44.5295 101.381 44.7245 100.881 45.0857 100.46C45.4508 100.037 45.9975 99.7404 46.7257 99.5694C47.2903 99.4369 47.8039 99.4191 48.2662 99.516C48.7316 99.6081 49.1105 99.8397 49.403 100.211C49.5527 100.393 49.6662 100.597 49.7435 100.821C49.8208 101.045 49.8905 101.29 49.9526 101.555L50.8643 105.439L49.7837 105.693L49.445 104.25L49.6992 104.387C49.5516 104.932 49.3032 105.37 48.954 105.703C48.6077 106.03 48.1406 106.263 47.5525 106.401ZM47.5342 105.352C47.8808 105.27 48.1646 105.14 48.3854 104.961C48.6054 104.778 48.769 104.573 48.8761 104.346C48.9831 104.12 49.0358 103.898 49.0341 103.681C49.0565 103.478 49.0441 103.259 48.997 103.024C48.9539 102.787 48.9159 102.599 48.883 102.459L49.3144 102.512C48.9426 102.661 48.6045 102.795 48.3 102.916C47.9956 103.037 47.7203 103.151 47.4743 103.258C47.2312 103.36 47.0177 103.466 46.8337 103.575C46.6799 103.672 46.5465 103.778 46.4333 103.891C46.3239 104.003 46.2441 104.126 46.1936 104.261C46.147 104.395 46.1434 104.546 46.1827 104.714C46.2211 104.877 46.2976 105.019 46.4123 105.14C46.5261 105.258 46.6763 105.337 46.8629 105.38C47.0495 105.422 47.2733 105.413 47.5342 105.352ZM56.8088 104.044L56.0808 100.942C56.0233 100.697 55.9429 100.451 55.8397 100.204C55.7396 99.952 55.605 99.7288 55.4361 99.5343C55.2711 99.3388 55.0674 99.1976 54.8251 99.1107C54.5868 99.0228 54.3001 99.0182 53.9652 99.0968C53.7471 99.148 53.5494 99.2334 53.3721 99.3531C53.1938 99.4689 53.0495 99.624 52.9389 99.8184C52.8323 100.012 52.7668 100.249 52.7424 100.53C52.7218 100.81 52.7554 101.137 52.8432 101.511L52.0166 101.403C51.8823 100.831 51.871 100.301 51.9828 99.8147C52.0937 99.3244 52.3209 98.9095 52.6645 98.5701C53.008 98.2306 53.464 97.9941 54.0326 97.8607C54.4687 97.7583 54.8512 97.7425 55.1801 97.8133C55.509 97.884 55.7919 98.0128 56.0288 98.1996C56.2687 98.3816 56.4689 98.5955 56.6293 98.8413C56.7897 99.0872 56.9176 99.3345 57.013 99.5833C57.1084 99.8321 57.1789 100.054 57.2246 100.249L58.0472 103.753L56.8088 104.044ZM52.3753 105.084L50.8947 98.7759L51.987 98.5195L52.4147 100.342L52.5608 100.308L53.6136 104.794L52.3753 105.084ZM62.8672 105.765C62.5284 105.845 62.187 105.869 61.843 105.839C61.5029 105.808 61.1781 105.72 60.8688 105.575C60.5604 105.434 60.2853 105.233 60.0436 104.973L61.0366 104.136C61.2359 104.373 61.4768 104.524 61.7592 104.589C62.0415 104.654 62.3229 104.654 62.6033 104.588C62.9499 104.507 63.2312 104.375 63.4473 104.193C63.6643 104.015 63.8063 103.788 63.8734 103.514C63.9443 103.238 63.9353 102.92 63.8464 102.559L63.4324 100.795L63.5784 100.76L62.4748 96.0581L63.5555 95.8045L65.0758 102.282C65.1151 102.45 65.1468 102.611 65.1707 102.766C65.1947 102.92 65.2089 103.077 65.2134 103.236C65.2234 103.682 65.1344 104.072 64.9461 104.408C64.7618 104.743 64.4909 105.025 64.1335 105.252C63.7799 105.479 63.3578 105.65 62.8672 105.765ZM62.1157 102.983C61.5276 103.121 60.9852 103.095 60.4883 102.903C59.9953 102.711 59.573 102.391 59.2214 101.943C58.8729 101.491 58.6245 100.949 58.4765 100.318C58.3275 99.6836 58.3114 99.0896 58.428 98.5363C58.5438 97.9791 58.782 97.5061 59.1427 97.1174C59.5064 96.7239 59.9843 96.4577 60.5762 96.3188C61.172 96.179 61.7067 96.2075 62.1802 96.4046C62.6567 96.5968 63.0571 96.9198 63.3814 97.3737C63.7096 97.8267 63.9477 98.3687 64.0958 98.9995C64.2439 99.6304 64.2717 100.222 64.1793 100.773C64.0869 101.325 63.871 101.797 63.5316 102.189C63.1912 102.577 62.7193 102.842 62.1157 102.983ZM62.026 101.84C62.4271 101.745 62.7318 101.573 62.9401 101.323C63.1485 101.073 63.2717 100.767 63.31 100.404C63.3482 100.042 63.3161 99.6427 63.2138 99.2065C63.1114 98.7704 62.9606 98.399 62.7612 98.0925C62.5658 97.785 62.3216 97.567 62.0285 97.4386C61.7393 97.3092 61.4038 97.2894 61.0222 97.3789C60.6172 97.474 60.3076 97.6514 60.0933 97.9113C59.879 98.1711 59.7469 98.4835 59.697 98.8486C59.6509 99.2128 59.6764 99.6012 59.7732 100.014C59.871 100.431 60.022 100.794 60.2261 101.103C60.4332 101.408 60.6867 101.63 60.9864 101.769C61.29 101.908 61.6365 101.931 62.026 101.84ZM65.0699 94.3582L64.7916 93.1724L66.0124 92.8859L66.2907 94.0717L65.0699 94.3582ZM66.7931 101.701L65.3125 95.3921L66.5333 95.1056L68.0139 101.414L66.7931 101.701ZM72.101 100.455L70.1327 92.0421L71.3711 91.7515L72.5775 96.8918L74.3413 93.2731L75.8951 92.9084L74.0185 96.6769L77.6444 99.1539L75.9855 99.5433L72.6323 97.1255L73.3452 100.163L72.101 100.455ZM80.6505 98.6271C80.2144 98.7295 79.8319 98.7453 79.503 98.6746C79.1741 98.6038 78.8897 98.4775 78.6498 98.2955C78.4129 98.1087 78.2142 97.8924 78.0538 97.6465C77.8933 97.4007 77.7654 97.1533 77.6701 96.9046C77.5747 96.6558 77.5042 96.434 77.4585 96.2393L76.6359 92.7345L77.8743 92.4439L78.6022 95.5456C78.6598 95.7909 78.7387 96.0395 78.8389 96.2913C78.942 96.5382 79.0761 96.7594 79.2411 96.9549C79.4101 97.1495 79.6137 97.2907 79.8521 97.3785C80.0944 97.4655 80.383 97.4696 80.7179 97.391C80.9359 97.3399 81.1341 97.2564 81.3124 97.1406C81.4897 97.0209 81.6317 96.8643 81.7383 96.6708C81.8488 96.4764 81.9143 96.2392 81.9349 95.9591C81.9593 95.6781 81.9277 95.3506 81.8399 94.9768L82.6665 95.0848C82.8008 95.6572 82.8125 96.1886 82.7016 96.6789C82.5898 97.1654 82.3621 97.5783 82.0186 97.9178C81.6751 98.2572 81.2191 98.4937 80.6505 98.6271ZM82.6961 97.9683L82.2684 96.1458L82.1223 96.1801L81.0695 91.694L82.302 91.4047L83.7826 97.7133L82.6961 97.9683ZM85.4209 97.3288L83.9403 91.0202L85.0267 90.7652L85.3859 92.2957L85.1874 92.1327C85.2178 91.9119 85.2756 91.7032 85.361 91.5065C85.4454 91.3059 85.5565 91.1319 85.6945 90.9845C85.8267 90.8302 85.9829 90.699 86.163 90.591C86.3461 90.4782 86.5394 90.3917 86.7431 90.3316C86.9458 90.2676 87.1467 90.2307 87.3457 90.221L87.6144 91.3659C87.3952 91.3598 87.1618 91.3981 86.9142 91.4809C86.6705 91.5628 86.4594 91.6965 86.2811 91.8822C86.1127 92.0573 85.9915 92.2501 85.9177 92.4605C85.8477 92.6701 85.8139 92.8937 85.8163 93.1314C85.8177 93.3653 85.8477 93.6068 85.9062 93.8561L86.6534 97.0396L85.4209 97.3288ZM92.1628 95.9253C91.3956 96.1053 90.7308 96.0826 90.1684 95.8571C89.606 95.6317 89.1981 95.2241 88.9447 94.6344L90.1495 94.1483C90.3041 94.4571 90.544 94.674 90.8692 94.799C91.1974 94.9192 91.5717 94.93 91.9923 94.8313C92.3739 94.7417 92.6535 94.5939 92.8312 94.3879C93.0127 94.1809 93.0715 93.9411 93.0075 93.6685C92.97 93.5089 92.9009 93.3895 92.8002 93.3104C92.7024 93.2266 92.5223 93.1682 92.2599 93.1353C91.9974 93.1024 91.6033 93.0777 91.0777 93.0614C90.5035 93.0483 90.038 92.9993 89.6812 92.9146C89.3274 92.8251 89.0572 92.6892 88.8707 92.507C88.6871 92.32 88.5592 92.0727 88.487 91.7651C88.3974 91.3834 88.4205 91.0267 88.5563 90.6949C88.6921 90.3631 88.9247 90.0764 89.2542 89.8347C89.5876 89.5921 90.0016 89.4128 90.4961 89.2967C90.979 89.1834 91.4271 89.1583 91.8405 89.2215C92.2539 89.2848 92.6103 89.4291 92.9098 89.6547C93.2083 89.8763 93.4248 90.1686 93.5593 90.5315L92.3627 91.0527C92.2486 90.759 92.0503 90.5528 91.7677 90.4343C91.4851 90.3157 91.1493 90.2939 90.7601 90.3688C90.3865 90.44 90.1012 90.5727 89.9044 90.7668C89.7066 90.957 89.6361 91.1729 89.6927 91.4143C89.7256 91.5545 89.7963 91.6632 89.9049 91.7405C90.0173 91.8168 90.2106 91.87 90.4847 91.9002C90.7588 91.9304 91.1578 91.9497 91.6816 91.9582C92.2432 91.9702 92.6994 92.0234 93.0503 92.1177C93.4002 92.2082 93.6683 92.3527 93.8546 92.5514C94.0439 92.7453 94.1765 93.0039 94.2524 93.3271C94.3986 93.9501 94.2855 94.4923 93.9131 94.9536C93.5445 95.414 92.9611 95.7379 92.1628 95.9253ZM96.5581 94.715L96.2798 93.5292L97.5006 93.2427L97.7789 94.4284L96.5581 94.715ZM96.0646 92.6121L94.584 86.3035L95.8048 86.017L97.2854 92.3256L96.0646 92.6121Z" fill="white"/>
<path d="M114.305 90.5497L112.601 83.289L109.803 83.9457L109.533 82.7949L116.35 81.1951L116.62 82.3458L113.822 83.0025L115.526 90.2632L114.305 90.5497ZM121.163 89.1253C120.536 89.2724 119.953 89.2654 119.414 89.1043C118.878 88.9384 118.42 88.6412 118.04 88.2127C117.663 87.7794 117.398 87.2376 117.245 86.5872C117.083 85.898 117.072 85.27 117.21 84.7035C117.352 84.136 117.622 83.6596 118.021 83.2744C118.419 82.8891 118.926 82.6243 119.541 82.4799C120.184 82.3291 120.766 82.3506 121.288 82.5445C121.81 82.7344 122.246 83.0779 122.596 83.5748C122.951 84.0709 123.194 84.7022 123.324 85.4686L122.104 85.7551L121.999 85.3112C121.82 84.5809 121.552 84.0725 121.198 83.786C120.847 83.4986 120.395 83.4198 119.842 83.5496C119.23 83.6931 118.816 83.9937 118.599 84.4514C118.382 84.9091 118.359 85.5021 118.53 86.2303C118.692 86.9235 118.972 87.4248 119.369 87.7342C119.766 88.0397 120.254 88.1244 120.834 87.9882C121.216 87.8987 121.525 87.7358 121.761 87.4995C122 87.2585 122.16 86.9581 122.24 86.5983L123.526 86.697C123.414 87.3192 123.144 87.8446 122.719 88.2731C122.293 88.6977 121.774 88.9818 121.163 89.1253ZM118.213 86.6682L117.99 85.716L122.493 84.6591L122.717 85.6112L118.213 86.6682ZM124.71 88.1078L124.665 87.915L127.067 82.0511L123.813 82.8147L123.557 81.7224L128.75 80.5037L128.796 80.7023L126.399 86.5589L129.799 85.7611L130.055 86.8534L124.71 88.1078ZM136.632 85.4948C136.001 85.6428 135.42 85.6291 134.89 85.4536C134.36 85.2781 133.91 84.9708 133.54 84.5317C133.173 84.0879 132.912 83.5388 132.759 82.8846C132.604 82.2265 132.597 81.6181 132.737 81.0593C132.876 80.4966 133.145 80.0227 133.544 79.6374C133.941 79.2483 134.45 78.981 135.069 78.8357C135.7 78.6877 136.28 78.7014 136.81 78.8769C137.34 79.0524 137.79 79.3597 138.161 79.7987C138.531 80.2378 138.792 80.7825 138.945 81.4328C139.099 82.0909 139.107 82.7013 138.968 83.264C138.832 83.8219 138.565 84.2973 138.168 84.6903C137.771 85.0795 137.259 85.3476 136.632 85.4948ZM136.361 84.344C136.965 84.2024 137.367 83.8943 137.568 83.4199C137.772 82.9406 137.799 82.3797 137.648 81.7372C137.493 81.079 137.218 80.589 136.822 80.2669C136.429 79.9401 135.935 79.8466 135.339 79.9864C134.93 80.0824 134.615 80.2549 134.394 80.504C134.172 80.7492 134.035 81.0504 133.984 81.4077C133.931 81.761 133.955 82.1519 134.055 82.5803C134.211 83.2423 134.487 83.7363 134.884 84.0622C135.281 84.3881 135.773 84.4821 136.361 84.344ZM140.97 84.2917L139.489 77.9831L140.576 77.7281L140.935 79.2585L140.737 79.0956C140.767 78.8748 140.825 78.6661 140.91 78.4694C140.994 78.2688 141.106 78.0948 141.244 77.9473C141.376 77.793 141.532 77.6619 141.712 77.5539C141.895 77.4411 142.088 77.3546 142.292 77.2945C142.495 77.2305 142.696 77.1936 142.895 77.1839L143.164 78.3287C142.944 78.3227 142.711 78.361 142.463 78.4438C142.22 78.5256 142.009 78.6594 141.83 78.845C141.662 79.0202 141.541 79.213 141.467 79.4234C141.397 79.6329 141.363 79.8566 141.365 80.0943C141.367 80.3282 141.397 80.5697 141.455 80.8189L142.202 84.0024L140.97 84.2917ZM147.128 83.0313C146.661 83.141 146.249 83.1472 145.894 83.0499C145.537 82.9486 145.244 82.7751 145.013 82.5292C144.786 82.2785 144.632 81.9818 144.552 81.6391C144.477 81.3198 144.467 81.0262 144.524 80.7582C144.58 80.4903 144.699 80.2465 144.882 80.027C145.064 79.8036 145.304 79.6013 145.603 79.4203C145.864 79.2727 146.164 79.1262 146.504 78.9807C146.844 78.8353 147.202 78.6896 147.579 78.5437C147.959 78.3968 148.336 78.2509 148.708 78.1059L148.322 78.4554C148.214 77.9591 148.023 77.6177 147.749 77.4313C147.478 77.2401 147.08 77.2062 146.554 77.3296C146.223 77.4073 145.938 77.5565 145.698 77.7771C145.457 77.9939 145.323 78.2923 145.298 78.6722L144.076 78.5891C144.105 78.0112 144.3 77.5115 144.661 77.0898C145.026 76.6672 145.573 76.3704 146.301 76.1995C146.866 76.067 147.379 76.0492 147.842 76.1461C148.307 76.2382 148.686 76.4698 148.978 76.8407C149.128 77.0234 149.242 77.2268 149.319 77.4511C149.396 77.6754 149.466 77.9199 149.528 78.1847L150.44 82.0692L149.359 82.3228L149.02 80.88L149.275 81.0176C149.127 81.5617 148.879 82 148.529 82.3326C148.183 82.6604 147.716 82.8933 147.128 83.0313ZM147.11 81.9817C147.456 81.9004 147.74 81.7701 147.961 81.5909C148.181 81.4078 148.344 81.203 148.452 80.9766C148.559 80.7501 148.611 80.5282 148.61 80.3108C148.632 80.1084 148.62 79.8894 148.573 79.6539C148.529 79.4175 148.491 79.2292 148.458 79.089L148.89 79.1419C148.518 79.2907 148.18 79.4256 147.875 79.5463C147.571 79.6671 147.296 79.781 147.05 79.888C146.807 79.9903 146.593 80.0959 146.409 80.2048C146.255 80.3025 146.122 80.4078 146.009 80.5206C145.899 80.6326 145.82 80.7561 145.769 80.8912C145.722 81.0254 145.719 81.1762 145.758 81.3437C145.797 81.5072 145.873 81.6495 145.988 81.7705C146.102 81.8876 146.252 81.9674 146.438 82.0099C146.625 82.0523 146.849 82.043 147.11 81.9817ZM154.504 81.3003C153.916 81.4383 153.373 81.4115 152.876 81.22C152.383 81.0276 151.961 80.7076 151.609 80.2601C151.261 79.8077 151.012 79.2662 150.864 78.6353C150.715 78.0005 150.699 77.4065 150.816 76.8532C150.932 76.296 151.17 75.8231 151.531 75.4344C151.894 75.0409 152.372 74.7747 152.964 74.6357C153.56 74.4959 154.095 74.5245 154.568 74.7215C155.045 74.9137 155.445 75.2368 155.769 75.6907C156.098 76.1437 156.336 76.6856 156.484 77.3165C156.632 77.9473 156.66 78.5386 156.567 79.0903C156.475 79.642 156.259 80.1138 155.92 80.5058C155.579 80.8938 155.107 81.1586 154.504 81.3003ZM154.414 80.1565C154.815 80.0624 155.12 79.8902 155.328 79.64C155.536 79.3898 155.66 79.0835 155.698 78.7212C155.736 78.3589 155.704 77.9596 155.602 77.5235C155.499 77.0873 155.349 76.716 155.149 76.4094C154.954 76.1019 154.709 75.884 154.416 75.7555C154.127 75.6262 153.792 75.6063 153.41 75.6959C153.005 75.7909 152.696 75.9684 152.481 76.2282C152.267 76.488 152.135 76.8005 152.085 77.1656C152.039 77.5297 152.064 77.9182 152.161 78.331C152.259 78.7476 152.41 79.1107 152.614 79.4203C152.821 79.725 153.075 79.947 153.374 80.0862C153.678 80.2245 154.024 80.2479 154.414 80.1565ZM156.343 80.6836L155.278 76.1449L155.138 76.1778L154.229 72.3051L155.456 72.0172L157.43 80.4286L156.343 80.6836ZM160.887 79.8021C160.42 79.9118 160.008 79.918 159.653 79.8207C159.296 79.7195 159.003 79.5459 158.772 79.3C158.545 79.0493 158.391 78.7526 158.311 78.41C158.236 78.0906 158.226 77.797 158.283 77.5291C158.339 77.2611 158.458 77.0174 158.641 76.7978C158.823 76.5744 159.063 76.3722 159.362 76.1912C159.623 76.0436 159.923 75.8971 160.263 75.7516C160.603 75.6061 160.961 75.4604 161.337 75.3145C161.718 75.1677 162.095 75.0218 162.467 74.8768L162.081 75.2263C161.973 74.7299 161.782 74.3885 161.508 74.2021C161.237 74.011 160.839 73.9771 160.313 74.1005C159.982 74.1781 159.697 74.3273 159.457 74.548C159.216 74.7647 159.082 75.0631 159.057 75.4431L157.835 75.3599C157.864 74.7821 158.059 74.2823 158.42 73.8606C158.785 73.438 159.332 73.1413 160.06 72.9704C160.625 72.8378 161.138 72.82 161.601 72.9169C162.066 73.0091 162.445 73.2406 162.737 73.6116C162.887 73.7942 163.001 73.9977 163.078 74.2219C163.155 74.4462 163.225 74.6907 163.287 74.9555L164.199 78.84L163.118 79.0936L162.779 77.6508L163.034 77.7884C162.886 78.3325 162.638 78.7709 162.288 79.1035C161.942 79.4312 161.475 79.6641 160.887 79.8021ZM160.869 78.7526C161.215 78.6712 161.499 78.5409 161.72 78.3617C161.94 78.1786 162.103 77.9738 162.21 77.7474C162.318 77.5209 162.37 77.299 162.369 77.0817C162.391 76.8792 162.379 76.6602 162.331 76.4248C162.288 76.1884 162.25 76.0001 162.217 75.8599L162.649 75.9127C162.277 76.0616 161.939 76.1964 161.634 76.3172C161.33 76.4379 161.055 76.5518 160.809 76.6589C160.566 76.7611 160.352 76.8667 160.168 76.9756C160.014 77.0733 159.881 77.1786 159.768 77.2915C159.658 77.4034 159.578 77.5269 159.528 77.662C159.481 77.7962 159.478 77.947 159.517 78.1145C159.555 78.2781 159.632 78.4203 159.747 78.5413C159.86 78.6584 160.011 78.7382 160.197 78.7807C160.384 78.8232 160.608 78.8138 160.869 78.7526ZM169.565 80.5388L170.006 76.9286L170.254 77.9058L165.914 71.7814L167.187 71.4826L170.47 76.228L170.096 76.3157L170.832 70.6271L172.07 70.3365L170.728 80.266L169.565 80.5388ZM176.061 76.241C175.593 76.3506 175.182 76.3568 174.826 76.2595C174.47 76.1583 174.176 75.9847 173.946 75.7389C173.719 75.4882 173.565 75.1915 173.484 74.8488C173.409 74.5295 173.4 74.2358 173.456 73.9679C173.513 73.6999 173.632 73.4562 173.815 73.2366C173.996 73.0132 174.237 72.811 174.535 72.63C174.796 72.4824 175.097 72.3359 175.437 72.1904C175.776 72.0449 176.135 71.8992 176.511 71.7533C176.892 71.6065 177.268 71.4606 177.641 71.3156L177.255 71.6651C177.146 71.1687 176.955 70.8273 176.681 70.641C176.411 70.4498 176.012 70.4159 175.487 70.5393C175.156 70.617 174.87 70.7661 174.63 70.9868C174.389 71.2036 174.256 71.5019 174.23 71.8819L173.009 71.7987C173.038 71.2209 173.233 70.7211 173.594 70.2994C173.959 69.8768 174.506 69.5801 175.234 69.4092C175.798 69.2766 176.312 69.2588 176.774 69.3558C177.24 69.4479 177.619 69.6794 177.911 70.0504C178.061 70.233 178.174 70.4365 178.252 70.6607C178.329 70.885 178.399 71.1296 178.461 71.3944L179.372 75.2788L178.292 75.5324L177.953 74.0896L178.207 74.2272C178.06 74.7713 177.811 75.2097 177.462 75.5423C177.116 75.8701 176.649 76.103 176.061 76.241ZM176.042 75.1914C176.389 75.11 176.673 74.9798 176.894 74.8005C177.113 74.6174 177.277 74.4127 177.384 74.1862C177.491 73.9597 177.544 73.7378 177.542 73.5205C177.565 73.318 177.552 73.099 177.505 72.8636C177.462 72.6272 177.424 72.4389 177.391 72.2987L177.823 72.3515C177.451 72.5004 177.113 72.6352 176.808 72.756C176.504 72.8767 176.228 72.9906 175.982 73.0977C175.739 73.1999 175.526 73.3055 175.342 73.4144C175.188 73.5122 175.055 73.6174 174.941 73.7303C174.832 73.8422 174.752 73.9657 174.702 74.1008C174.655 74.235 174.651 74.3859 174.691 74.5533C174.729 74.7169 174.806 74.8591 174.92 74.9801C175.034 75.0972 175.184 75.177 175.371 75.2195C175.558 75.262 175.781 75.2526 176.042 75.1914ZM185.317 73.8837L184.589 70.7819C184.531 70.5366 184.451 70.2905 184.348 70.0435C184.248 69.7917 184.113 69.5686 183.944 69.374C183.779 69.1786 183.575 69.0373 183.333 68.9504C183.095 68.8625 182.808 68.8579 182.473 68.9365C182.255 68.9877 182.057 69.0731 181.88 69.1928C181.702 69.3086 181.558 69.4637 181.447 69.6581C181.34 69.8516 181.275 70.0888 181.25 70.3698C181.23 70.6499 181.263 70.9769 181.351 71.3508L180.525 71.2428C180.39 70.6703 180.379 70.1409 180.491 69.6545C180.602 69.1642 180.829 68.7493 181.173 68.4098C181.516 68.0703 181.972 67.8339 182.541 67.7004C182.977 67.5981 183.359 67.5823 183.688 67.653C184.017 67.7237 184.3 67.8525 184.537 68.0393C184.777 68.2213 184.977 68.4352 185.137 68.681C185.298 68.9269 185.426 69.1742 185.521 69.423C185.616 69.6718 185.687 69.8935 185.733 70.0883L186.555 73.593L185.317 73.8837ZM180.883 74.9242L179.403 68.6156L180.495 68.3592L180.923 70.1817L181.069 70.1475L182.122 74.6336L180.883 74.9242ZM191.375 75.6049C191.036 75.6845 190.695 75.7091 190.351 75.6789C190.011 75.6478 189.686 75.5597 189.377 75.4145C189.068 75.2732 188.793 75.0728 188.552 74.8132L189.545 73.9761C189.744 74.2128 189.985 74.3638 190.267 74.429C190.55 74.4942 190.831 74.4939 191.111 74.4281C191.458 74.3468 191.739 74.215 191.955 74.0328C192.172 73.8545 192.314 73.6281 192.381 73.3535C192.452 73.078 192.443 72.7596 192.354 72.3984L191.94 70.6343L192.086 70.6L190.983 65.8978L192.064 65.6442L193.584 72.1222C193.623 72.2896 193.655 72.4506 193.679 72.6053C193.703 72.7599 193.717 72.9168 193.721 73.076C193.732 73.5214 193.642 73.9121 193.454 74.248C193.27 74.583 192.999 74.8643 192.642 75.092C192.288 75.3188 191.866 75.4898 191.375 75.6049ZM190.624 72.8231C190.036 72.9611 189.493 72.9343 188.996 72.7428C188.503 72.5503 188.081 72.2304 187.729 71.7828C187.381 71.3305 187.133 70.7889 186.985 70.1581C186.836 69.5233 186.819 68.9293 186.936 68.376C187.052 67.8188 187.29 67.3459 187.651 66.9572C188.015 66.5636 188.492 66.2974 189.084 66.1585C189.68 66.0187 190.215 66.0473 190.688 66.2443C191.165 66.4365 191.565 66.7595 191.889 67.2135C192.218 67.6665 192.456 68.2084 192.604 68.8392C192.752 69.4701 192.78 70.0614 192.687 70.6131C192.595 71.1648 192.379 71.6366 192.04 72.0285C191.699 72.4166 191.227 72.6814 190.624 72.8231ZM190.534 71.6793C190.935 71.5852 191.24 71.413 191.448 71.1628C191.657 70.9125 191.78 70.6063 191.818 70.244C191.856 69.8816 191.824 69.4824 191.722 69.0462C191.619 68.6101 191.469 68.2387 191.269 67.9322C191.074 67.6247 190.83 67.4067 190.537 67.2783C190.247 67.149 189.912 67.1291 189.53 67.2186C189.125 67.3137 188.816 67.4911 188.601 67.751C188.387 68.0108 188.255 68.3233 188.205 68.6883C188.159 69.0525 188.184 69.4409 188.281 69.8537C188.379 70.2704 188.53 70.6335 188.734 70.9431C188.941 71.2478 189.195 71.4698 189.494 71.609C189.798 71.7473 190.145 71.7707 190.534 71.6793ZM193.578 64.1979L193.3 63.0121L194.52 62.7256L194.799 63.9114L193.578 64.1979ZM195.301 71.5404L193.821 65.2318L195.041 64.9453L196.522 71.2539L195.301 71.5404ZM200.609 70.2947L198.641 61.8818L199.879 61.5912L201.086 66.7315L202.849 63.1128L204.403 62.7481L202.527 66.5166L206.152 68.9936L204.494 69.383L201.14 66.9652L201.853 70.0026L200.609 70.2947ZM209.159 68.4669C208.722 68.5692 208.34 68.585 208.011 68.5143C207.682 68.4436 207.398 68.3172 207.158 68.1352C206.921 67.9484 206.722 67.7321 206.562 67.4862C206.401 67.2404 206.274 66.9931 206.178 66.7443C206.083 66.4955 206.012 66.2737 205.967 66.079L205.144 62.5743L206.382 62.2836L207.11 65.3853C207.168 65.6307 207.247 65.8792 207.347 66.131C207.45 66.378 207.584 66.5992 207.749 66.7946C207.918 66.9892 208.122 67.1304 208.36 67.2182C208.602 67.3052 208.891 67.3094 209.226 67.2308C209.444 67.1796 209.642 67.0961 209.82 66.9803C209.998 66.8606 210.14 66.704 210.246 66.5106C210.357 66.3162 210.422 66.0789 210.443 65.7988C210.467 65.5178 210.436 65.1904 210.348 64.8165L211.175 64.9245C211.309 65.497 211.321 66.0283 211.21 66.5187C211.098 67.0051 210.87 67.418 210.527 67.7575C210.183 68.097 209.727 68.3334 209.159 68.4669ZM211.204 67.808L210.776 65.9856L210.63 66.0198L209.578 61.5337L210.81 61.2445L212.291 67.553L211.204 67.808ZM213.929 67.1685L212.448 60.86L213.535 60.605L213.894 62.1354L213.695 61.9724C213.726 61.7516 213.784 61.5429 213.869 61.3462C213.953 61.1456 214.065 60.9716 214.203 60.8242C214.335 60.6699 214.491 60.5387 214.671 60.4307C214.854 60.3179 215.047 60.2315 215.251 60.1713C215.454 60.1073 215.655 60.0704 215.854 60.0607L216.122 61.2056C215.903 61.1995 215.67 61.2379 215.422 61.3206C215.179 61.4025 214.967 61.5362 214.789 61.7219C214.621 61.897 214.5 62.0898 214.426 62.3002C214.356 62.5098 214.322 62.7334 214.324 62.9712C214.326 63.205 214.356 63.4465 214.414 63.6958L215.161 66.8793L213.929 67.1685ZM220.671 65.765C219.904 65.945 219.239 65.9223 218.676 65.6968C218.114 65.4714 217.706 65.0638 217.453 64.4741L218.658 63.988C218.812 64.2968 219.052 64.5137 219.377 64.6387C219.705 64.7589 220.08 64.7697 220.5 64.671C220.882 64.5814 221.162 64.4336 221.339 64.2276C221.521 64.0206 221.58 63.7809 221.516 63.5083C221.478 63.3486 221.409 63.2292 221.308 63.1502C221.21 63.0663 221.03 63.0079 220.768 62.975C220.505 62.9421 220.111 62.9175 219.586 62.9011C219.012 62.888 218.546 62.8391 218.189 62.7543C217.835 62.6648 217.565 62.5289 217.379 62.3468C217.195 62.1598 217.067 61.9124 216.995 61.6048C216.905 61.2232 216.929 60.8664 217.064 60.5346C217.2 60.2028 217.433 59.9161 217.762 59.6744C218.096 59.4318 218.51 59.2525 219.004 59.1364C219.487 59.0231 219.935 58.998 220.349 59.0613C220.762 59.1245 221.118 59.2689 221.418 59.4944C221.716 59.7161 221.933 60.0083 222.067 60.3712L220.871 60.8924C220.757 60.5987 220.558 60.3926 220.276 60.274C219.993 60.1554 219.657 60.1336 219.268 60.2085C218.895 60.2797 218.609 60.4124 218.412 60.6065C218.215 60.7967 218.144 61.0126 218.201 61.254C218.234 61.3942 218.304 61.5029 218.413 61.5802C218.525 61.6565 218.719 61.7098 218.993 61.7399C219.267 61.7701 219.666 61.7894 220.19 61.798C220.751 61.81 221.207 61.8631 221.558 61.9575C221.908 62.0479 222.176 62.1925 222.363 62.3912C222.552 62.585 222.685 62.8436 222.76 63.1668C222.907 63.7899 222.794 64.332 222.421 64.7934C222.053 65.2537 221.469 65.5776 220.671 65.765ZM225.066 64.5547L224.788 63.3689L226.009 63.0824L226.287 64.2682L225.066 64.5547ZM224.573 62.4518L223.092 56.1432L224.313 55.8567L225.793 62.1653L224.573 62.4518Z" fill="white"/>
<path d="M242.814 60.3894L241.11 53.1287L238.312 53.7854L238.042 52.6347L244.858 51.0348L245.129 52.1855L242.331 52.8422L244.035 60.1029L242.814 60.3894ZM249.671 58.965C249.044 59.1121 248.461 59.1052 247.922 58.9441C247.386 58.7782 246.928 58.481 246.548 58.0524C246.171 57.6191 245.906 57.0773 245.753 56.427C245.592 55.7377 245.58 55.1098 245.718 54.5432C245.86 53.9757 246.13 53.4994 246.529 53.1141C246.928 52.7289 247.434 52.464 248.05 52.3196C248.692 52.1688 249.275 52.1903 249.797 52.3842C250.318 52.5741 250.754 52.9176 251.105 53.4146C251.459 53.9106 251.702 54.5419 251.833 55.3083L250.612 55.5949L250.508 55.1509C250.328 54.4206 250.061 53.9123 249.706 53.6258C249.355 53.3383 248.903 53.2595 248.35 53.3893C247.739 53.5328 247.324 53.8334 247.107 54.2911C246.89 54.7489 246.867 55.3418 247.038 56.07C247.201 56.7632 247.48 57.2645 247.878 57.5739C248.274 57.8795 248.762 57.9641 249.342 57.828C249.724 57.7384 250.033 57.5755 250.269 57.3393C250.509 57.0982 250.668 56.7978 250.748 56.438L252.035 56.5367C251.922 57.1589 251.653 57.6843 251.227 58.1128C250.801 58.5374 250.282 58.8215 249.671 58.965ZM246.722 56.5079L246.498 55.5558L251.002 54.4988L251.225 55.4509L246.722 56.5079ZM253.218 57.9475L253.173 57.7547L255.575 51.8909L252.321 52.6545L252.065 51.5621L257.258 50.3434L257.305 50.542L254.907 56.3987L258.307 55.6008L258.563 56.6931L253.218 57.9475ZM265.14 55.3345C264.509 55.4826 263.929 55.4688 263.398 55.2933C262.868 55.1178 262.418 54.8105 262.048 54.3715C261.681 53.9276 261.421 53.3786 261.267 52.7243C261.113 52.0662 261.105 51.4578 261.245 50.899C261.385 50.3363 261.653 49.8624 262.052 49.4771C262.449 49.088 262.958 48.8208 263.577 48.6754C264.208 48.5274 264.788 48.5411 265.318 48.7166C265.849 48.8921 266.299 49.1994 266.669 49.6385C267.039 50.0775 267.3 50.6222 267.453 51.2725C267.607 51.9307 267.615 52.5411 267.476 53.1037C267.34 53.6616 267.073 54.137 266.677 54.5301C266.279 54.9192 265.767 55.1874 265.14 55.3345ZM264.87 54.1838C265.473 54.0421 265.876 53.734 266.077 53.2596C266.28 52.7803 266.307 52.2194 266.156 51.5769C266.002 50.9188 265.726 50.4287 265.33 50.1067C264.937 49.7798 264.443 49.6863 263.847 49.8262C263.438 49.9221 263.123 50.0947 262.902 50.3437C262.681 50.5889 262.544 50.8901 262.492 51.2474C262.439 51.6008 262.463 51.9916 262.564 52.42C262.719 53.082 262.995 53.576 263.392 53.9019C263.789 54.2278 264.282 54.3218 264.87 54.1838ZM269.478 54.1314L267.998 47.8228L269.084 47.5678L269.443 49.0983L269.245 48.9353C269.275 48.7145 269.333 48.5058 269.418 48.3091C269.503 48.1085 269.614 47.9345 269.752 47.7871C269.884 47.6328 270.04 47.5016 270.22 47.3936C270.403 47.2808 270.597 47.1943 270.8 47.1342C271.003 47.0702 271.204 47.0333 271.403 47.0236L271.672 48.1685C271.453 48.1624 271.219 48.2007 270.972 48.2835C270.728 48.3654 270.517 48.4991 270.339 48.6848C270.17 48.8599 270.049 49.0527 269.975 49.2631C269.905 49.4726 269.871 49.6963 269.874 49.934C269.875 50.1679 269.905 50.4094 269.964 50.6586L270.711 53.8421L269.478 54.1314ZM275.636 52.871C275.169 52.9807 274.758 52.9869 274.402 52.8896C274.045 52.7884 273.752 52.6148 273.522 52.3689C273.294 52.1182 273.14 51.8215 273.06 51.4788C272.985 51.1595 272.976 50.8659 273.032 50.5979C273.088 50.33 273.208 50.0863 273.39 49.8667C273.572 49.6433 273.812 49.4411 274.111 49.2601C274.372 49.1125 274.673 48.9659 275.012 48.8205C275.352 48.675 275.71 48.5293 276.087 48.3834C276.467 48.2366 276.844 48.0906 277.217 47.9456L276.83 48.2952C276.722 47.7988 276.531 47.4574 276.257 47.271C275.986 47.0799 275.588 47.046 275.062 47.1693C274.731 47.247 274.446 47.3962 274.206 47.6169C273.965 47.8336 273.832 48.132 273.806 48.512L272.585 48.4288C272.613 47.851 272.808 47.3512 273.169 46.9295C273.535 46.5069 274.081 46.2101 274.809 46.0392C275.374 45.9067 275.888 45.8889 276.35 45.9858C276.815 46.0779 277.194 46.3095 277.487 46.6805C277.636 46.8631 277.75 47.0665 277.827 47.2908C277.905 47.5151 277.974 47.7596 278.036 48.0244L278.948 51.9089L277.867 52.1625L277.529 50.7197L277.783 50.8573C277.635 51.4014 277.387 51.8397 277.038 52.1723C276.691 52.5001 276.224 52.733 275.636 52.871ZM275.618 51.8215C275.965 51.7401 276.248 51.6098 276.469 51.4306C276.689 51.2475 276.853 51.0427 276.96 50.8163C277.067 50.5898 277.12 50.3679 277.118 50.1505C277.14 49.9481 277.128 49.7291 277.081 49.4936C277.038 49.2572 277 49.069 276.967 48.9288L277.398 48.9816C277.026 49.1305 276.688 49.2653 276.384 49.3861C276.079 49.5068 275.804 49.6207 275.558 49.7278C275.315 49.83 275.101 49.9356 274.917 50.0445C274.764 50.1422 274.63 50.2475 274.517 50.3604C274.408 50.4723 274.328 50.5958 274.277 50.7309C274.231 50.8651 274.227 51.0159 274.266 51.1834C274.305 51.3469 274.381 51.4892 274.496 51.6102C274.61 51.7273 274.76 51.8071 274.947 51.8496C275.133 51.8921 275.357 51.8827 275.618 51.8215ZM283.012 51.14C282.424 51.278 281.881 51.2513 281.385 51.0597C280.892 50.8673 280.469 50.5473 280.118 50.0998C279.769 49.6475 279.521 49.1059 279.373 48.475C279.224 47.8403 279.208 47.2462 279.324 46.693C279.44 46.1358 279.678 45.6628 280.039 45.2741C280.403 44.8806 280.881 44.6144 281.472 44.4755C282.068 44.3356 282.603 44.3642 283.076 44.5612C283.553 44.7534 283.953 45.0765 284.278 45.5304C284.606 45.9834 284.844 46.5253 284.992 47.1562C285.14 47.7871 285.168 48.3783 285.076 48.93C284.983 49.4817 284.767 49.9536 284.428 50.3455C284.087 50.7335 283.616 50.9983 283.012 51.14ZM282.922 49.9963C283.323 49.9021 283.628 49.7299 283.836 49.4797C284.045 49.2295 284.168 48.9232 284.206 48.5609C284.244 48.1986 284.212 47.7994 284.11 47.3632C284.008 46.9271 283.857 46.5557 283.657 46.2491C283.462 45.9416 283.218 45.7237 282.925 45.5953C282.635 45.4659 282.3 45.446 281.918 45.5356C281.513 45.6306 281.204 45.8081 280.99 46.0679C280.775 46.3278 280.643 46.6402 280.593 47.0053C280.547 47.3694 280.573 47.7579 280.669 48.1707C280.767 48.5874 280.918 48.9505 281.122 49.26C281.329 49.5648 281.583 49.7867 281.883 49.9259C282.186 50.0642 282.533 50.0876 282.922 49.9963ZM284.852 50.5233L283.786 45.9847L283.646 46.0176L282.737 42.1448L283.964 41.8569L285.938 50.2683L284.852 50.5233ZM289.395 49.6419C288.928 49.7515 288.516 49.7577 288.161 49.6604C287.804 49.5592 287.511 49.3857 287.281 49.1398C287.053 48.8891 286.899 48.5924 286.819 48.2497C286.744 47.9304 286.735 47.6367 286.791 47.3688C286.847 47.1008 286.967 46.8571 287.149 46.6375C287.331 46.4141 287.571 46.2119 287.87 46.0309C288.131 45.8833 288.431 45.7368 288.771 45.5913C289.111 45.4458 289.469 45.3001 289.846 45.1542C290.226 45.0074 290.603 44.8615 290.976 44.7165L290.589 45.066C290.481 44.5696 290.29 44.2282 290.016 44.0419C289.745 43.8507 289.347 43.8168 288.821 43.9402C288.49 44.0179 288.205 44.167 287.965 44.3877C287.724 44.6045 287.591 44.9028 287.565 45.2828L286.344 45.1996C286.372 44.6218 286.567 44.122 286.928 43.7003C287.294 43.2777 287.84 42.981 288.568 42.8101C289.133 42.6776 289.647 42.6597 290.109 42.7567C290.574 42.8488 290.953 43.0803 291.246 43.4513C291.395 43.6339 291.509 43.8374 291.586 44.0617C291.663 44.2859 291.733 44.5305 291.795 44.7953L292.707 48.6797L291.626 48.9333L291.288 47.4905L291.542 47.6281C291.394 48.1722 291.146 48.6106 290.797 48.9432C290.45 49.271 289.983 49.5039 289.395 49.6419ZM289.377 48.5923C289.724 48.5109 290.007 48.3807 290.228 48.2015C290.448 48.0183 290.612 47.8136 290.719 47.5871C290.826 47.3606 290.879 47.1387 290.877 46.9214C290.899 46.7189 290.887 46.5 290.84 46.2645C290.797 46.0281 290.759 45.8398 290.726 45.6996L291.157 45.7524C290.785 45.9013 290.447 46.0361 290.143 46.1569C289.838 46.2776 289.563 46.3916 289.317 46.4986C289.074 46.6008 288.86 46.7064 288.676 46.8153C288.523 46.9131 288.389 47.0183 288.276 47.1312C288.167 47.2431 288.087 47.3667 288.036 47.5018C287.99 47.6359 287.986 47.7868 288.025 47.9542C288.064 48.1178 288.14 48.2601 288.255 48.381C288.369 48.4982 288.519 48.5779 288.706 48.6204C288.892 48.6629 289.116 48.6535 289.377 48.5923ZM298.073 50.3785L298.514 46.7683L298.762 47.7455L294.422 41.6212L295.695 41.3223L298.978 46.0677L298.605 46.1554L299.34 40.4668L300.579 40.1762L299.236 50.1057L298.073 50.3785ZM304.569 46.0807C304.102 46.1904 303.69 46.1965 303.334 46.0992C302.978 45.998 302.684 45.8245 302.454 45.5786C302.227 45.3279 302.073 45.0312 301.993 44.6885C301.918 44.3692 301.908 44.0755 301.965 43.8076C302.021 43.5397 302.14 43.2959 302.323 43.0764C302.505 42.8529 302.745 42.6507 303.043 42.4697C303.305 42.3221 303.605 42.1756 303.945 42.0301C304.285 41.8846 304.643 41.7389 305.019 41.593C305.4 41.4462 305.777 41.3003 306.149 41.1553L305.763 41.5048C305.655 41.0084 305.464 40.667 305.19 40.4807C304.919 40.2895 304.521 40.2556 303.995 40.379C303.664 40.4567 303.378 40.6059 303.139 40.8265C302.898 41.0433 302.764 41.3416 302.738 41.7216L301.517 41.6385C301.546 41.0606 301.741 40.5608 302.102 40.1391C302.467 39.7165 303.014 39.4198 303.742 39.2489C304.307 39.1164 304.82 39.0986 305.283 39.1955C305.748 39.2876 306.127 39.5191 306.419 39.8901C306.569 40.0727 306.683 40.2762 306.76 40.5005C306.837 40.7247 306.907 40.9693 306.969 41.2341L307.881 45.1185L306.8 45.3722L306.461 43.9294L306.716 44.0669C306.568 44.611 306.32 45.0494 305.97 45.382C305.624 45.7098 305.157 45.9427 304.569 46.0807ZM304.551 45.0311C304.897 44.9498 305.181 44.8195 305.402 44.6403C305.622 44.4572 305.785 44.2524 305.892 44.0259C306 43.7995 306.052 43.5776 306.05 43.3602C306.073 43.1577 306.06 42.9388 306.013 42.7033C305.97 42.4669 305.932 42.2786 305.899 42.1384L306.331 42.1912C305.959 42.3401 305.621 42.4749 305.316 42.5957C305.012 42.7165 304.737 42.8304 304.491 42.9374C304.248 43.0397 304.034 43.1452 303.85 43.2542C303.696 43.3519 303.563 43.4572 303.45 43.57C303.34 43.6819 303.26 43.8055 303.21 43.9406C303.163 44.0748 303.16 44.2256 303.199 44.393C303.237 44.5566 303.314 44.6989 303.429 44.8199C303.542 44.937 303.693 45.0168 303.879 45.0592C304.066 45.1017 304.29 45.0923 304.551 45.0311ZM313.825 43.7234L313.097 40.6217C313.04 40.3763 312.959 40.1302 312.856 39.8832C312.756 39.6314 312.621 39.4083 312.452 39.2137C312.287 39.0183 312.084 38.8771 311.842 38.7901C311.603 38.7023 311.316 38.6976 310.982 38.7762C310.764 38.8274 310.566 38.9129 310.388 39.0325C310.21 39.1483 310.066 39.3034 309.955 39.4978C309.849 39.6913 309.783 39.9285 309.759 40.2096C309.738 40.4897 309.772 40.8166 309.86 41.1905L309.033 41.0825C308.899 40.51 308.887 39.9806 308.999 39.4942C309.11 39.0039 309.337 38.589 309.681 38.2495C310.024 37.91 310.48 37.6736 311.049 37.5402C311.485 37.4378 311.868 37.422 312.196 37.4927C312.525 37.5634 312.808 37.6922 313.045 37.879C313.285 38.061 313.485 38.2749 313.646 38.5208C313.806 38.7666 313.934 39.0139 314.029 39.2627C314.125 39.5115 314.195 39.7333 314.241 39.928L315.064 43.4328L313.825 43.7234ZM309.392 44.7639L307.911 38.4553L309.003 38.199L309.431 40.0214L309.577 39.9872L310.63 44.4733L309.392 44.7639ZM319.884 45.4447C319.545 45.5242 319.203 45.5488 318.859 45.5186C318.519 45.4875 318.195 45.3994 317.885 45.2542C317.577 45.113 317.302 44.9125 317.06 44.6529L318.053 43.8158C318.252 44.0526 318.493 44.2035 318.776 44.2687C319.058 44.3339 319.339 44.3336 319.62 44.2678C319.966 44.1865 320.248 44.0547 320.464 43.8725C320.681 43.6942 320.823 43.4678 320.89 43.1932C320.961 42.9177 320.952 42.5993 320.863 42.2381L320.449 40.474L320.595 40.4398L319.491 35.7375L320.572 35.4839L322.092 41.9619C322.131 42.1293 322.163 42.2904 322.187 42.445C322.211 42.5996 322.225 42.7565 322.23 42.9157C322.24 43.3612 322.151 43.7519 321.962 44.0878C321.778 44.4227 321.507 44.7041 321.15 44.9318C320.796 45.1585 320.374 45.3295 319.884 45.4447ZM319.132 42.6628C318.544 42.8008 318.002 42.774 317.505 42.5825C317.012 42.3901 316.589 42.0701 316.238 41.6226C315.889 41.1702 315.641 40.6286 315.493 39.9978C315.344 39.363 315.328 38.769 315.444 38.2157C315.56 37.6585 315.798 37.1856 316.159 36.7969C316.523 36.4034 317.001 36.1372 317.593 35.9982C318.188 35.8584 318.723 35.887 319.197 36.084C319.673 36.2762 320.073 36.5993 320.398 37.0532C320.726 37.5062 320.964 38.0481 321.112 38.679C321.26 39.3098 321.288 39.9011 321.196 40.4528C321.103 41.0045 320.887 41.4763 320.548 41.8682C320.208 42.2563 319.736 42.5211 319.132 42.6628ZM319.042 41.519C319.443 41.4249 319.748 41.2527 319.956 41.0025C320.165 40.7523 320.288 40.446 320.326 40.0837C320.365 39.7214 320.332 39.3221 320.23 38.886C320.128 38.4498 319.977 38.0785 319.778 37.7719C319.582 37.4644 319.338 37.2465 319.045 37.118C318.756 36.9887 318.42 36.9688 318.039 37.0584C317.634 37.1534 317.324 37.3309 317.11 37.5907C316.895 37.8505 316.763 38.163 316.713 38.528C316.667 38.8922 316.693 39.2807 316.79 39.6934C316.887 40.1101 317.038 40.4732 317.242 40.7828C317.45 41.0875 317.703 41.3095 318.003 41.4487C318.306 41.587 318.653 41.6104 319.042 41.519ZM322.086 34.0376L321.808 32.8518L323.029 32.5653L323.307 33.7511L322.086 34.0376ZM323.809 41.3801L322.329 35.0715L323.55 34.785L325.03 41.0936L323.809 41.3801ZM329.117 40.1344L327.149 31.7216L328.387 31.4309L329.594 36.5712L331.358 32.9525L332.911 32.5878L331.035 36.3563L334.661 38.8334L333.002 39.2227L329.649 36.8049L330.362 39.8424L329.117 40.1344ZM337.667 38.3066C337.231 38.4089 336.848 38.4247 336.519 38.354C336.19 38.2833 335.906 38.1569 335.666 37.9749C335.429 37.7881 335.231 37.5718 335.07 37.326C334.91 37.0801 334.782 36.8328 334.686 36.584C334.591 36.3352 334.521 36.1135 334.475 35.9187L333.652 32.414L334.891 32.1233L335.619 35.2251C335.676 35.4704 335.755 35.7189 335.855 35.9707C335.958 36.2177 336.092 36.4389 336.258 36.6344C336.426 36.8289 336.63 36.9701 336.868 37.058C337.111 37.1449 337.399 37.1491 337.734 37.0705C337.952 37.0193 338.15 36.9358 338.329 36.82C338.506 36.7003 338.648 36.5438 338.755 36.3503C338.865 36.1559 338.931 35.9186 338.951 35.6385C338.976 35.3575 338.944 35.0301 338.856 34.6562L339.683 34.7642C339.817 35.3367 339.829 35.8681 339.718 36.3584C339.606 36.8448 339.378 37.2577 339.035 37.5972C338.691 37.9367 338.235 38.1731 337.667 38.3066ZM339.712 37.6478L339.285 35.8253L339.139 35.8595L338.086 31.3734L339.318 31.0842L340.799 37.3928L339.712 37.6478ZM342.437 37.0083L340.957 30.6997L342.043 30.4447L342.402 31.9751L342.204 31.8121C342.234 31.5914 342.292 31.3826 342.377 31.1859C342.462 30.9853 342.573 30.8113 342.711 30.6639C342.843 30.5096 342.999 30.3785 343.179 30.2705C343.362 30.1576 343.556 30.0712 343.759 30.0111C343.962 29.947 344.163 29.9102 344.362 29.9004L344.631 31.0453C344.412 31.0392 344.178 31.0776 343.931 31.1604C343.687 31.2422 343.476 31.376 343.297 31.5616C343.129 31.7367 343.008 31.9295 342.934 32.14C342.864 32.3495 342.83 32.5731 342.833 32.8109C342.834 33.0447 342.864 33.2863 342.923 33.5355L343.67 36.719L342.437 37.0083ZM349.179 35.6047C348.412 35.7847 347.747 35.762 347.185 35.5366C346.622 35.3111 346.214 34.9035 345.961 34.3138L347.166 33.8277C347.32 34.1365 347.56 34.3535 347.886 34.4785C348.214 34.5987 348.588 34.6094 349.009 34.5107C349.39 34.4211 349.67 34.2733 349.848 34.0673C350.029 33.8604 350.088 33.6206 350.024 33.348C349.986 33.1883 349.917 33.069 349.817 32.9899C349.719 32.906 349.539 32.8476 349.276 32.8147C349.014 32.7818 348.62 32.7572 348.094 32.7409C347.52 32.7277 347.054 32.6788 346.698 32.5941C346.344 32.5045 346.074 32.3687 345.887 32.1865C345.703 31.9995 345.576 31.7522 345.503 31.4445C345.414 31.0629 345.437 30.7062 345.573 30.3744C345.708 30.0426 345.941 29.7558 346.271 29.5141C346.604 29.2716 347.018 29.0922 347.512 28.9762C347.995 28.8628 348.444 28.8378 348.857 28.901C349.27 28.9642 349.627 29.1086 349.926 29.3341C350.225 29.5558 350.441 29.848 350.576 30.2109L349.379 30.7321C349.265 30.4384 349.067 30.2323 348.784 30.1137C348.501 29.9951 348.166 29.9733 347.776 30.0482C347.403 30.1195 347.118 30.2521 346.921 30.4463C346.723 30.6365 346.652 30.8523 346.709 31.0937C346.742 31.2339 346.813 31.3426 346.921 31.4199C347.034 31.4962 347.227 31.5495 347.501 31.5796C347.775 31.6098 348.174 31.6291 348.698 31.6377C349.26 31.6497 349.716 31.7029 350.067 31.7972C350.417 31.8876 350.685 32.0322 350.871 32.2309C351.06 32.4248 351.193 32.6833 351.269 33.0065C351.415 33.6296 351.302 34.1718 350.929 34.6331C350.561 35.0935 349.977 35.4173 349.179 35.6047ZM353.574 34.3944L353.296 33.2086L354.517 32.9221L354.795 34.1079L353.574 34.3944ZM353.081 32.2915L351.6 25.983L352.821 25.6964L354.302 32.005L353.081 32.2915Z" fill="white"/>
</svg>
